<svg width="16" height="7" viewBox="0 0 16 7" fill="none" xmlns="http://www.w3.org/2000/svg">
<path d="M13.0452 1.08189C14.2837 1.64044 15.3514 2.47898 15.9274 3.66662C15.9873 3.79027 16.011 3.92839 15.9957 4.06497C15.9804 4.20155 15.9267 4.331 15.8409 4.43832C15.755 4.54564 15.6405 4.62643 15.5106 4.67134C15.3807 4.71625 15.2408 4.72344 15.107 4.69207C10.7746 3.6768 6.39208 5.42225 4.08153 6.37498C2.63135 6.9728 1.22335 6.4848 0.495351 5.50153C0.116753 5.0004 -0.0543567 4.37274 0.0175326 3.7488C0.264805 1.7088 2.82917 0.836072 4.52081 0.452072C7.27062 -0.171201 10.4466 -0.0919282 13.0452 1.08116V1.08189Z" fill="white"/>
</svg>
